<svg id="Layer_1" data-name="Layer 1" xmlns="http://www.w3.org/2000/svg" viewBox="0 0 474.9936 31.3334"><defs><style>.cls-1{fill:#fff;}</style></defs><title>white-paper-rip--bottom</title><path class="cls-1" d="M474.99,4.0872c-.2464-.5077,0-2.1365-.0493-3.3V0H0V27.7786c13.2592.5922,20.1108.0009,33.37.5086,1.0844-.275,2.12-.5923,3.1546-.9519,2.1442-.74,4.19-1.6077,6.2846-2.4327,2.2427.55,4.4608,1.1,6.4078,1.5865a17.3,17.3,0,0,1,7.96-1.0153,40.0118,40.0118,0,0,1,6.5557.973c.37.1058.8872-.1692,1.3555-.148.9118.0423,2.1934-.0847,2.6863.2749a2.1336,2.1336,0,0,0,2.7356.1481,20.79,20.79,0,0,0,3.1053,1.7346c1.6512.5923,3.2039,1.5231,5.3481.5289a7.5213,7.5213,0,0,1,6.4324.36c.4436.2116.8626.4442,1.2815.6558,25.9762.698,22.346-.4972,48.3222-.2221,1.01-1.6924,32.6131-.2856,35.0283-.0741,1.5526.1481,3.2779.5923,4.5841-.1269a9.053,9.053,0,0,1,5.4219-.6135c1.7745.19,3.82.36,5.2988,1.5654a3.0406,3.0406,0,0,0,1.9469.3385,9.4423,9.4423,0,0,0,2.5385-.8039c1.2569-.55,2.3907-1.2481,3.6476-1.8192a2.4018,2.4018,0,0,1,2.5877.1692,1.4645,1.4645,0,0,1,.4683,1.9885c-.1479.2538-.5422.4231-1.2569.9308a12.4251,12.4251,0,0,0,1.8484-.1905,6.6688,6.6688,0,0,1,1.3555-.55,14.6669,14.6669,0,0,1,5.7423.275,7.0123,7.0123,0,0,0,2.2181.0635c.69-.0212,1.5034-.3385,1.9963-.127a4.4825,4.4825,0,0,0,5.0276-.8461,13.3007,13.3007,0,0,1,5.1263-2.602,3.4552,3.4552,0,0,1,2.218-.0211,23.3876,23.3876,0,0,0,4.7812,1.0153,9.4919,9.4919,0,0,1,3.1793.5077c1.01.4231,2.07.6982,2.9574-.36.9612.6347,1.7745,1.2269,2.6617,1.6923a4.1951,4.1951,0,0,0,1.8731.5289c1.6019,0,3.2285-.1269,4.929-.2115.32-.19.8133-.4866,1.2816-.8039.5668-.36,1.06-.7827,1.6512-1.1211a10.7525,10.7525,0,0,1,1.7745-.8039,4.2973,4.2973,0,0,1,1.1583.0212,17.16,17.16,0,0,0,6.0628-1.0789,14.9187,14.9187,0,0,1,5.5205-1.1846c2.81.0846,5.5206-1.2481,8.3548-.2115a.8777.8777,0,0,0,.4436-.0635,15.9353,15.9353,0,0,1,5.8409-.0423,2.6584,2.6584,0,0,0,1.5034-.1481c1.2816-.8885,2.44-.5077,3.6229.1692a5.6277,5.6277,0,0,0,4.929.3385,11.5711,11.5711,0,0,1,7.0486-.5077,13.93,13.93,0,0,0,5.1262.55,4.2105,4.2105,0,0,1,1.947.5289,6.0818,6.0818,0,0,0,3.5982.5923,25.0647,25.0647,0,0,1,6.2846-.19,6.5353,6.5353,0,0,0,4.0172-.2961,10.0713,10.0713,0,0,1,4.4361-1.0155,28.08,28.08,0,0,0,3.2779-.2961c1.799-.2539,3.5982-.74,5.348.4442a3.0979,3.0979,0,0,0,1.38.2539,14.0966,14.0966,0,0,1,3.0314.275,13.6322,13.6322,0,0,0,5.2248.2961,2.4985,2.4985,0,0,0,2.4645-1.3115c.7147-1.2481,2.8589-1.65,4.3869-.9308a20.3058,20.3058,0,0,0,2.0209,1.0789,6.1929,6.1929,0,0,0,2.44.4231,18.7575,18.7575,0,0,0,3.5489-.8674c1.0844-.3173,2.4153-.5288,3.1054-1.1846a3.2019,3.2019,0,0,1,3.1052-.7192,2.3351,2.3351,0,0,0,.9366.0423c3.1546-.6981,6.4077-.2115,9.6117.0423a1.953,1.953,0,0,1,1.8237,1.0365,4.0115,4.0115,0,0,0,4.7319,1.6078c1.06-.5077,2.2181-.4443,3.2285-.8674a4.8184,4.8184,0,0,1,3.9679.4231,4.5321,4.5321,0,0,0,3.3764.4443,21.58,21.58,0,0,1,8.1577-.127,2.3648,2.3648,0,0,0,1.7005-.2961c.6654-.8039,1.6512-.5712,2.5384-.74.69-.1269,1.43-.0635,2.07-.2538,1.38-.402,2.7357-.91,4.0666-1.4174a2.8963,2.8963,0,0,1,2.6863.3173c1.0844.677,2.1934,1.2692,3.401.275a1.0051,1.0051,0,0,1,.8873-.0422c1.873,1.1634,2.982-.0212,4.0664-.8885,1.9717-1.5654,2.1935-1.7135,4.6087-.6135a3.8025,3.8025,0,0,0,3.7707,0,3.8123,3.8123,0,0,1,3.13-.2538c2.2674.5711,4.5348,1.5019,6.9746,1.2481a1.9919,1.9919,0,0,1,.9366.0423c2.637,1.0365,5.3727,1.7769,8.2069,1.2057.271-.0423.69.2961,1.06.4019,1.947.5289,3.7954,1.29,5.9888.9943a24.405,24.405,0,0,1,7.7387-.19c3.5488.6981,6.9007-.1692,10.351.1692,2.8588-1.1846,6.0381.1481,8.9709-.4019a3.7823,3.7823,0,0,1,.8626-.0423C475.0389,1.3161,474.94,10.243,474.99,4.0872Z"/></svg>